<mxfile host="app.diagrams.net" agent="Mozilla/5.0 (X11; Linux x86_64) AppleWebKit/537.36 (KHTML, like Gecko) Chrome/128.0.0.0 Safari/537.36" version="24.7.14">
  <diagram name="第 1 页" id="e4D_Li7_KQqeuzBAChgT">
    <mxGraphModel dx="2305" dy="940" grid="1" gridSize="10" guides="1" tooltips="1" connect="1" arrows="1" fold="1" page="1" pageScale="1" pageWidth="827" pageHeight="1169" math="0" shadow="0">
      <root>
        <mxCell id="0" />
        <mxCell id="1" parent="0" />
        <mxCell id="i2E6n2VhdCn6O7-Z8RXk-26" value="" style="rounded=1;whiteSpace=wrap;html=1;fillColor=#dae8fc;strokeColor=#6c8ebf;" vertex="1" parent="1">
          <mxGeometry x="414" y="410" width="206" height="290" as="geometry" />
        </mxCell>
        <mxCell id="i2E6n2VhdCn6O7-Z8RXk-39" style="edgeStyle=orthogonalEdgeStyle;rounded=0;orthogonalLoop=1;jettySize=auto;html=1;" edge="1" parent="1" source="i2E6n2VhdCn6O7-Z8RXk-1" target="i2E6n2VhdCn6O7-Z8RXk-38">
          <mxGeometry relative="1" as="geometry" />
        </mxCell>
        <mxCell id="i2E6n2VhdCn6O7-Z8RXk-1" value="Application.class" style="rounded=1;whiteSpace=wrap;html=1;" vertex="1" parent="1">
          <mxGeometry x="-240" y="250" width="140" height="40" as="geometry" />
        </mxCell>
        <mxCell id="i2E6n2VhdCn6O7-Z8RXk-7" value="" style="edgeStyle=orthogonalEdgeStyle;rounded=0;orthogonalLoop=1;jettySize=auto;html=1;" edge="1" parent="1" source="i2E6n2VhdCn6O7-Z8RXk-4" target="i2E6n2VhdCn6O7-Z8RXk-6">
          <mxGeometry relative="1" as="geometry" />
        </mxCell>
        <mxCell id="i2E6n2VhdCn6O7-Z8RXk-10" value="" style="edgeStyle=orthogonalEdgeStyle;rounded=0;orthogonalLoop=1;jettySize=auto;html=1;" edge="1" parent="1" source="i2E6n2VhdCn6O7-Z8RXk-4" target="i2E6n2VhdCn6O7-Z8RXk-9">
          <mxGeometry relative="1" as="geometry" />
        </mxCell>
        <mxCell id="i2E6n2VhdCn6O7-Z8RXk-4" value="get_scan_path" style="whiteSpace=wrap;html=1;rounded=1;" vertex="1" parent="1">
          <mxGeometry x="225" y="250" width="130" height="40" as="geometry" />
        </mxCell>
        <mxCell id="i2E6n2VhdCn6O7-Z8RXk-8" style="edgeStyle=orthogonalEdgeStyle;rounded=0;orthogonalLoop=1;jettySize=auto;html=1;" edge="1" parent="1" source="i2E6n2VhdCn6O7-Z8RXk-6">
          <mxGeometry relative="1" as="geometry">
            <mxPoint x="290" y="340" as="targetPoint" />
            <Array as="points">
              <mxPoint x="475" y="340" />
            </Array>
          </mxGeometry>
        </mxCell>
        <mxCell id="i2E6n2VhdCn6O7-Z8RXk-11" value="path_in_annotate" style="edgeLabel;html=1;align=center;verticalAlign=middle;resizable=0;points=[];" vertex="1" connectable="0" parent="i2E6n2VhdCn6O7-Z8RXk-8">
          <mxGeometry x="0.0596" y="1" relative="1" as="geometry">
            <mxPoint as="offset" />
          </mxGeometry>
        </mxCell>
        <mxCell id="i2E6n2VhdCn6O7-Z8RXk-12" style="edgeStyle=orthogonalEdgeStyle;rounded=0;orthogonalLoop=1;jettySize=auto;html=1;exitX=1;exitY=0.5;exitDx=0;exitDy=0;" edge="1" parent="1" source="i2E6n2VhdCn6O7-Z8RXk-6">
          <mxGeometry relative="1" as="geometry">
            <mxPoint x="290" y="380" as="targetPoint" />
            <Array as="points">
              <mxPoint x="520" y="380" />
              <mxPoint x="290" y="380" />
            </Array>
          </mxGeometry>
        </mxCell>
        <mxCell id="i2E6n2VhdCn6O7-Z8RXk-13" value="application_packname" style="edgeLabel;html=1;align=center;verticalAlign=middle;resizable=0;points=[];" vertex="1" connectable="0" parent="i2E6n2VhdCn6O7-Z8RXk-12">
          <mxGeometry x="0.4835" y="2" relative="1" as="geometry">
            <mxPoint x="32" y="-2" as="offset" />
          </mxGeometry>
        </mxCell>
        <mxCell id="i2E6n2VhdCn6O7-Z8RXk-6" value="has scan annotate" style="rhombus;whiteSpace=wrap;html=1;rounded=1;" vertex="1" parent="1">
          <mxGeometry x="430" y="240" width="90" height="60" as="geometry" />
        </mxCell>
        <mxCell id="i2E6n2VhdCn6O7-Z8RXk-15" value="" style="edgeStyle=orthogonalEdgeStyle;rounded=0;orthogonalLoop=1;jettySize=auto;html=1;" edge="1" parent="1" source="i2E6n2VhdCn6O7-Z8RXk-9" target="i2E6n2VhdCn6O7-Z8RXk-14">
          <mxGeometry relative="1" as="geometry" />
        </mxCell>
        <mxCell id="i2E6n2VhdCn6O7-Z8RXk-22" style="edgeStyle=orthogonalEdgeStyle;rounded=0;orthogonalLoop=1;jettySize=auto;html=1;entryX=0.5;entryY=0;entryDx=0;entryDy=0;" edge="1" parent="1" source="i2E6n2VhdCn6O7-Z8RXk-9" target="i2E6n2VhdCn6O7-Z8RXk-23">
          <mxGeometry relative="1" as="geometry">
            <mxPoint x="290" y="680" as="targetPoint" />
          </mxGeometry>
        </mxCell>
        <mxCell id="i2E6n2VhdCn6O7-Z8RXk-9" value="get_class_names" style="whiteSpace=wrap;html=1;rounded=1;" vertex="1" parent="1">
          <mxGeometry x="230" y="470" width="120" height="40" as="geometry" />
        </mxCell>
        <mxCell id="i2E6n2VhdCn6O7-Z8RXk-18" value="" style="edgeStyle=orthogonalEdgeStyle;rounded=0;orthogonalLoop=1;jettySize=auto;html=1;" edge="1" parent="1" source="i2E6n2VhdCn6O7-Z8RXk-14" target="i2E6n2VhdCn6O7-Z8RXk-17">
          <mxGeometry relative="1" as="geometry" />
        </mxCell>
        <mxCell id="i2E6n2VhdCn6O7-Z8RXk-14" value="get_folder_by_classloader" style="whiteSpace=wrap;html=1;rounded=1;" vertex="1" parent="1">
          <mxGeometry x="430" y="470" width="180" height="40" as="geometry" />
        </mxCell>
        <mxCell id="i2E6n2VhdCn6O7-Z8RXk-16" value="得到资源的URL&lt;div&gt;可以处理为绝对路径&lt;/div&gt;" style="text;html=1;align=left;verticalAlign=middle;resizable=0;points=[];autosize=1;strokeColor=none;fillColor=none;" vertex="1" parent="1">
          <mxGeometry x="620" y="470" width="130" height="40" as="geometry" />
        </mxCell>
        <mxCell id="i2E6n2VhdCn6O7-Z8RXk-20" style="edgeStyle=orthogonalEdgeStyle;rounded=0;orthogonalLoop=1;jettySize=auto;html=1;" edge="1" parent="1" source="i2E6n2VhdCn6O7-Z8RXk-17" target="i2E6n2VhdCn6O7-Z8RXk-19">
          <mxGeometry relative="1" as="geometry" />
        </mxCell>
        <mxCell id="i2E6n2VhdCn6O7-Z8RXk-17" value="get_file_in_folder" style="whiteSpace=wrap;html=1;rounded=1;" vertex="1" parent="1">
          <mxGeometry x="435" y="550" width="170" height="40" as="geometry" />
        </mxCell>
        <mxCell id="i2E6n2VhdCn6O7-Z8RXk-24" style="edgeStyle=orthogonalEdgeStyle;rounded=0;orthogonalLoop=1;jettySize=auto;html=1;" edge="1" parent="1" source="i2E6n2VhdCn6O7-Z8RXk-19">
          <mxGeometry relative="1" as="geometry">
            <mxPoint x="290" y="650" as="targetPoint" />
          </mxGeometry>
        </mxCell>
        <mxCell id="i2E6n2VhdCn6O7-Z8RXk-25" value="class_names" style="edgeLabel;html=1;align=center;verticalAlign=middle;resizable=0;points=[];" vertex="1" connectable="0" parent="i2E6n2VhdCn6O7-Z8RXk-24">
          <mxGeometry x="0.0476" y="-2" relative="1" as="geometry">
            <mxPoint as="offset" />
          </mxGeometry>
        </mxCell>
        <mxCell id="i2E6n2VhdCn6O7-Z8RXk-19" value="获取类的全限定名" style="whiteSpace=wrap;html=1;rounded=1;" vertex="1" parent="1">
          <mxGeometry x="435" y="630" width="170" height="40" as="geometry" />
        </mxCell>
        <mxCell id="i2E6n2VhdCn6O7-Z8RXk-21" value="处理文件&lt;div&gt;主要是为了获取类的全限定名&lt;/div&gt;" style="text;html=1;align=left;verticalAlign=middle;resizable=0;points=[];autosize=1;strokeColor=none;fillColor=none;" vertex="1" parent="1">
          <mxGeometry x="620" y="630" width="180" height="40" as="geometry" />
        </mxCell>
        <mxCell id="i2E6n2VhdCn6O7-Z8RXk-29" style="edgeStyle=orthogonalEdgeStyle;rounded=0;orthogonalLoop=1;jettySize=auto;html=1;entryX=0;entryY=0.5;entryDx=0;entryDy=0;" edge="1" parent="1" source="i2E6n2VhdCn6O7-Z8RXk-23" target="i2E6n2VhdCn6O7-Z8RXk-28">
          <mxGeometry relative="1" as="geometry" />
        </mxCell>
        <mxCell id="i2E6n2VhdCn6O7-Z8RXk-23" value="create_bean_definitions" style="whiteSpace=wrap;html=1;rounded=1;" vertex="1" parent="1">
          <mxGeometry x="215" y="760" width="150" height="40" as="geometry" />
        </mxCell>
        <mxCell id="i2E6n2VhdCn6O7-Z8RXk-27" value="resource resolver" style="text;html=1;align=center;verticalAlign=middle;resizable=0;points=[];autosize=1;strokeColor=none;fillColor=none;" vertex="1" parent="1">
          <mxGeometry x="457" y="420" width="120" height="30" as="geometry" />
        </mxCell>
        <mxCell id="i2E6n2VhdCn6O7-Z8RXk-34" style="edgeStyle=orthogonalEdgeStyle;rounded=0;orthogonalLoop=1;jettySize=auto;html=1;" edge="1" parent="1" source="i2E6n2VhdCn6O7-Z8RXk-28" target="i2E6n2VhdCn6O7-Z8RXk-33">
          <mxGeometry relative="1" as="geometry" />
        </mxCell>
        <mxCell id="i2E6n2VhdCn6O7-Z8RXk-28" value="Class.forName" style="whiteSpace=wrap;html=1;rounded=1;" vertex="1" parent="1">
          <mxGeometry x="435" y="760" width="150" height="40" as="geometry" />
        </mxCell>
        <mxCell id="i2E6n2VhdCn6O7-Z8RXk-32" value="动态加载类" style="text;html=1;align=center;verticalAlign=middle;resizable=0;points=[];autosize=1;strokeColor=none;fillColor=none;" vertex="1" parent="1">
          <mxGeometry x="590" y="765" width="80" height="30" as="geometry" />
        </mxCell>
        <mxCell id="i2E6n2VhdCn6O7-Z8RXk-46" value="" style="edgeStyle=orthogonalEdgeStyle;rounded=0;orthogonalLoop=1;jettySize=auto;html=1;" edge="1" parent="1" source="i2E6n2VhdCn6O7-Z8RXk-33" target="i2E6n2VhdCn6O7-Z8RXk-45">
          <mxGeometry relative="1" as="geometry" />
        </mxCell>
        <mxCell id="i2E6n2VhdCn6O7-Z8RXk-33" value="get_bean_name" style="whiteSpace=wrap;html=1;rounded=1;" vertex="1" parent="1">
          <mxGeometry x="435" y="840" width="150" height="40" as="geometry" />
        </mxCell>
        <mxCell id="i2E6n2VhdCn6O7-Z8RXk-50" value="" style="edgeStyle=orthogonalEdgeStyle;rounded=0;orthogonalLoop=1;jettySize=auto;html=1;" edge="1" parent="1" source="i2E6n2VhdCn6O7-Z8RXk-35" target="i2E6n2VhdCn6O7-Z8RXk-49">
          <mxGeometry relative="1" as="geometry" />
        </mxCell>
        <mxCell id="i2E6n2VhdCn6O7-Z8RXk-35" value="new BeanDefinitions" style="whiteSpace=wrap;html=1;rounded=1;" vertex="1" parent="1">
          <mxGeometry x="635" y="925" width="150" height="40" as="geometry" />
        </mxCell>
        <mxCell id="i2E6n2VhdCn6O7-Z8RXk-40" style="edgeStyle=orthogonalEdgeStyle;rounded=0;orthogonalLoop=1;jettySize=auto;html=1;" edge="1" parent="1" source="i2E6n2VhdCn6O7-Z8RXk-38" target="i2E6n2VhdCn6O7-Z8RXk-4">
          <mxGeometry relative="1" as="geometry" />
        </mxCell>
        <mxCell id="i2E6n2VhdCn6O7-Z8RXk-41" style="edgeStyle=orthogonalEdgeStyle;rounded=0;orthogonalLoop=1;jettySize=auto;html=1;" edge="1" parent="1" source="i2E6n2VhdCn6O7-Z8RXk-38">
          <mxGeometry relative="1" as="geometry">
            <mxPoint x="50" y="1041.5999755859375" as="targetPoint" />
          </mxGeometry>
        </mxCell>
        <mxCell id="i2E6n2VhdCn6O7-Z8RXk-38" value="get_bean_definitions" style="rounded=1;whiteSpace=wrap;html=1;fillColor=#f8cecc;strokeColor=#b85450;" vertex="1" parent="1">
          <mxGeometry x="-20" y="250" width="140" height="40" as="geometry" />
        </mxCell>
        <mxCell id="i2E6n2VhdCn6O7-Z8RXk-44" style="edgeStyle=orthogonalEdgeStyle;rounded=0;orthogonalLoop=1;jettySize=auto;html=1;entryX=0;entryY=0.5;entryDx=0;entryDy=0;" edge="1" parent="1" source="i2E6n2VhdCn6O7-Z8RXk-42" target="i2E6n2VhdCn6O7-Z8RXk-43">
          <mxGeometry relative="1" as="geometry" />
        </mxCell>
        <mxCell id="i2E6n2VhdCn6O7-Z8RXk-67" value="" style="edgeStyle=orthogonalEdgeStyle;rounded=0;orthogonalLoop=1;jettySize=auto;html=1;" edge="1" parent="1" source="i2E6n2VhdCn6O7-Z8RXk-42" target="i2E6n2VhdCn6O7-Z8RXk-66">
          <mxGeometry relative="1" as="geometry" />
        </mxCell>
        <mxCell id="i2E6n2VhdCn6O7-Z8RXk-42" value="create_bean_instances" style="rounded=1;whiteSpace=wrap;html=1;fillColor=#f8cecc;strokeColor=#b85450;" vertex="1" parent="1">
          <mxGeometry x="-20" y="1040" width="140" height="40" as="geometry" />
        </mxCell>
        <mxCell id="i2E6n2VhdCn6O7-Z8RXk-60" value="" style="edgeStyle=orthogonalEdgeStyle;rounded=0;orthogonalLoop=1;jettySize=auto;html=1;" edge="1" parent="1" source="i2E6n2VhdCn6O7-Z8RXk-43" target="i2E6n2VhdCn6O7-Z8RXk-59">
          <mxGeometry relative="1" as="geometry" />
        </mxCell>
        <mxCell id="i2E6n2VhdCn6O7-Z8RXk-65" value="" style="edgeStyle=orthogonalEdgeStyle;rounded=0;orthogonalLoop=1;jettySize=auto;html=1;" edge="1" parent="1" source="i2E6n2VhdCn6O7-Z8RXk-43" target="i2E6n2VhdCn6O7-Z8RXk-64">
          <mxGeometry relative="1" as="geometry" />
        </mxCell>
        <mxCell id="i2E6n2VhdCn6O7-Z8RXk-43" value="先处理有configuration注解的bean" style="rounded=1;whiteSpace=wrap;html=1;" vertex="1" parent="1">
          <mxGeometry x="220" y="1040" width="140" height="40" as="geometry" />
        </mxCell>
        <mxCell id="i2E6n2VhdCn6O7-Z8RXk-47" style="edgeStyle=orthogonalEdgeStyle;rounded=0;orthogonalLoop=1;jettySize=auto;html=1;" edge="1" parent="1" source="i2E6n2VhdCn6O7-Z8RXk-45">
          <mxGeometry relative="1" as="geometry">
            <mxPoint x="630" y="945" as="targetPoint" />
          </mxGeometry>
        </mxCell>
        <mxCell id="i2E6n2VhdCn6O7-Z8RXk-48" value="是" style="edgeLabel;html=1;align=center;verticalAlign=middle;resizable=0;points=[];" vertex="1" connectable="0" parent="i2E6n2VhdCn6O7-Z8RXk-47">
          <mxGeometry x="-0.2561" y="2" relative="1" as="geometry">
            <mxPoint as="offset" />
          </mxGeometry>
        </mxCell>
        <mxCell id="i2E6n2VhdCn6O7-Z8RXk-45" value="component&lt;div&gt;注解&lt;/div&gt;" style="rhombus;whiteSpace=wrap;html=1;rounded=1;fillColor=#d5e8d4;strokeColor=#82b366;" vertex="1" parent="1">
          <mxGeometry x="455" y="920" width="110" height="50" as="geometry" />
        </mxCell>
        <mxCell id="i2E6n2VhdCn6O7-Z8RXk-52" value="" style="edgeStyle=orthogonalEdgeStyle;rounded=0;orthogonalLoop=1;jettySize=auto;html=1;" edge="1" parent="1" source="i2E6n2VhdCn6O7-Z8RXk-49">
          <mxGeometry relative="1" as="geometry">
            <mxPoint x="905" y="1030" as="targetPoint" />
          </mxGeometry>
        </mxCell>
        <mxCell id="i2E6n2VhdCn6O7-Z8RXk-55" value="是" style="edgeLabel;html=1;align=center;verticalAlign=middle;resizable=0;points=[];" vertex="1" connectable="0" parent="i2E6n2VhdCn6O7-Z8RXk-52">
          <mxGeometry x="-0.2093" relative="1" as="geometry">
            <mxPoint as="offset" />
          </mxGeometry>
        </mxCell>
        <mxCell id="i2E6n2VhdCn6O7-Z8RXk-49" value="configureation&lt;div&gt;注解&lt;/div&gt;" style="rhombus;whiteSpace=wrap;html=1;rounded=1;fillColor=#d5e8d4;strokeColor=#82b366;" vertex="1" parent="1">
          <mxGeometry x="860" y="916.25" width="90" height="57.5" as="geometry" />
        </mxCell>
        <mxCell id="i2E6n2VhdCn6O7-Z8RXk-53" value="new BeanDefinitions" style="whiteSpace=wrap;html=1;rounded=1;" vertex="1" parent="1">
          <mxGeometry x="830" y="1030" width="150" height="40" as="geometry" />
        </mxCell>
        <mxCell id="i2E6n2VhdCn6O7-Z8RXk-56" value="component：核心注解，该类需要被管理&lt;div&gt;configuration：编辑为一个配置类，其中用Bean注解标记的类会被IOC管理&lt;/div&gt;" style="text;html=1;align=left;verticalAlign=middle;resizable=0;points=[];autosize=1;strokeColor=none;fillColor=none;" vertex="1" parent="1">
          <mxGeometry x="1001" y="920" width="420" height="40" as="geometry" />
        </mxCell>
        <mxCell id="i2E6n2VhdCn6O7-Z8RXk-62" value="" style="edgeStyle=orthogonalEdgeStyle;rounded=0;orthogonalLoop=1;jettySize=auto;html=1;entryX=0.5;entryY=0;entryDx=0;entryDy=0;" edge="1" parent="1" source="i2E6n2VhdCn6O7-Z8RXk-59" target="i2E6n2VhdCn6O7-Z8RXk-63">
          <mxGeometry relative="1" as="geometry">
            <mxPoint x="507" y="1140" as="targetPoint" />
          </mxGeometry>
        </mxCell>
        <mxCell id="i2E6n2VhdCn6O7-Z8RXk-59" value="循环依赖" style="rhombus;whiteSpace=wrap;html=1;rounded=1;fillColor=#f8cecc;strokeColor=#b85450;" vertex="1" parent="1">
          <mxGeometry x="457" y="1030" width="100" height="60" as="geometry" />
        </mxCell>
        <mxCell id="i2E6n2VhdCn6O7-Z8RXk-63" value="实例化bean" style="rounded=1;whiteSpace=wrap;html=1;" vertex="1" parent="1">
          <mxGeometry x="437" y="1160" width="140" height="40" as="geometry" />
        </mxCell>
        <mxCell id="i2E6n2VhdCn6O7-Z8RXk-64" value="实例化其他bean" style="rounded=1;whiteSpace=wrap;html=1;" vertex="1" parent="1">
          <mxGeometry x="220" y="1160" width="140" height="40" as="geometry" />
        </mxCell>
        <mxCell id="i2E6n2VhdCn6O7-Z8RXk-69" value="" style="edgeStyle=orthogonalEdgeStyle;rounded=0;orthogonalLoop=1;jettySize=auto;html=1;" edge="1" parent="1" source="i2E6n2VhdCn6O7-Z8RXk-66" target="i2E6n2VhdCn6O7-Z8RXk-68">
          <mxGeometry relative="1" as="geometry" />
        </mxCell>
        <mxCell id="i2E6n2VhdCn6O7-Z8RXk-77" value="" style="edgeStyle=orthogonalEdgeStyle;rounded=0;orthogonalLoop=1;jettySize=auto;html=1;" edge="1" parent="1" source="i2E6n2VhdCn6O7-Z8RXk-66" target="i2E6n2VhdCn6O7-Z8RXk-76">
          <mxGeometry relative="1" as="geometry" />
        </mxCell>
        <mxCell id="i2E6n2VhdCn6O7-Z8RXk-66" value="init_bean_instances" style="rounded=1;whiteSpace=wrap;html=1;fillColor=#f8cecc;strokeColor=#b85450;" vertex="1" parent="1">
          <mxGeometry x="-20" y="1310" width="140" height="40" as="geometry" />
        </mxCell>
        <mxCell id="i2E6n2VhdCn6O7-Z8RXk-71" value="" style="edgeStyle=orthogonalEdgeStyle;rounded=0;orthogonalLoop=1;jettySize=auto;html=1;" edge="1" parent="1" source="i2E6n2VhdCn6O7-Z8RXk-68" target="i2E6n2VhdCn6O7-Z8RXk-70">
          <mxGeometry relative="1" as="geometry" />
        </mxCell>
        <mxCell id="i2E6n2VhdCn6O7-Z8RXk-75" value="" style="edgeStyle=orthogonalEdgeStyle;rounded=0;orthogonalLoop=1;jettySize=auto;html=1;" edge="1" parent="1" source="i2E6n2VhdCn6O7-Z8RXk-68" target="i2E6n2VhdCn6O7-Z8RXk-74">
          <mxGeometry relative="1" as="geometry" />
        </mxCell>
        <mxCell id="i2E6n2VhdCn6O7-Z8RXk-68" value="inject_properties" style="rounded=1;whiteSpace=wrap;html=1;" vertex="1" parent="1">
          <mxGeometry x="200" y="1310" width="140" height="40" as="geometry" />
        </mxCell>
        <mxCell id="i2E6n2VhdCn6O7-Z8RXk-73" value="" style="edgeStyle=orthogonalEdgeStyle;rounded=0;orthogonalLoop=1;jettySize=auto;html=1;" edge="1" parent="1" source="i2E6n2VhdCn6O7-Z8RXk-70" target="i2E6n2VhdCn6O7-Z8RXk-72">
          <mxGeometry relative="1" as="geometry" />
        </mxCell>
        <mxCell id="i2E6n2VhdCn6O7-Z8RXk-70" value="inject_field" style="rounded=1;whiteSpace=wrap;html=1;" vertex="1" parent="1">
          <mxGeometry x="420" y="1310" width="140" height="40" as="geometry" />
        </mxCell>
        <mxCell id="i2E6n2VhdCn6O7-Z8RXk-72" value="inject_method" style="rounded=1;whiteSpace=wrap;html=1;" vertex="1" parent="1">
          <mxGeometry x="420" y="1400" width="140" height="40" as="geometry" />
        </mxCell>
        <mxCell id="i2E6n2VhdCn6O7-Z8RXk-74" value="init_bean" style="rounded=1;whiteSpace=wrap;html=1;" vertex="1" parent="1">
          <mxGeometry x="200" y="1450" width="140" height="40" as="geometry" />
        </mxCell>
        <mxCell id="i2E6n2VhdCn6O7-Z8RXk-76" value="bean_post_processor" style="rounded=1;whiteSpace=wrap;html=1;fillColor=#f8cecc;strokeColor=#b85450;" vertex="1" parent="1">
          <mxGeometry x="-20" y="1560" width="140" height="40" as="geometry" />
        </mxCell>
      </root>
    </mxGraphModel>
  </diagram>
</mxfile>
